<svg xmlns="http://www.w3.org/2000/svg" xmlns:xlink="http://www.w3.org/1999/xlink" viewBox="0 0 1384.64 1129.19"><defs><style>.cls-1{isolation:isolate;}.cls-2{opacity:0.48;fill:url(#radial-gradient);}.cls-3{fill:url(#radial-gradient-2);}.cls-4{opacity:0.4;fill:url(#radial-gradient-3);}.cls-21,.cls-5,.cls-59{fill:none;}.cls-5{stroke:#313656;opacity:0.31;}.cls-21,.cls-30,.cls-32,.cls-33,.cls-5,.cls-59{stroke-miterlimit:10;}.cls-6{fill:#fff;}.cls-7{fill:#e8cf80;}.cls-8{fill:#e94869;}.cls-9{fill:#2b1b40;}.cls-10{fill:#f4a891;}.cls-11{fill:#fccc44;}.cls-12{fill:#3f548e;}.cls-13{fill:#3f5ca3;}.cls-14{fill:#f27762;}.cls-15{fill:#542852;}.cls-16{fill:#192f56;}.cls-17{fill:#ec1c24;}.cls-18{fill:#ddd4a7;}.cls-19{fill:#faf5d7;}.cls-20{fill:url(#radial-gradient-4);}.cls-21{stroke:#fdfeff;stroke-width:0.99px;}.cls-22{fill:#fdfeff;}.cls-23{fill:#3f1c3f;}.cls-24{fill:#441c44;}.cls-25{fill:#cec38e;}.cls-26{fill:url(#linear-gradient);}.cls-27{fill:url(#linear-gradient-2);}.cls-28{fill:url(#linear-gradient-3);}.cls-29{fill:#1c8cd1;}.cls-30,.cls-32,.cls-33{stroke:#2effff;}.cls-30,.cls-33{stroke-width:4px;}.cls-30{fill:url(#radial-gradient-5);}.cls-31{fill:#025fce;}.cls-32{fill:url(#radial-gradient-6);}.cls-33{fill:url(#radial-gradient-7);}.cls-34{fill:#313656;}.cls-35{fill:#212744;}.cls-36{fill:#8997e9;}.cls-37{fill:#a6b8ff;}.cls-38{fill:#7a86d0;}.cls-39{fill:#db8672;}.cls-40{fill:#adcdea;}.cls-41{fill:#b7e9f7;}.cls-42{fill:#4973b9;}.cls-43{fill:#f9fafc;}.cls-44{fill:#c4c4c4;}.cls-45{fill:url(#radial-gradient-8);}.cls-46{fill:#9db2bf;}.cls-46,.cls-48{mix-blend-mode:multiply;}.cls-47{fill:url(#radial-gradient-9);}.cls-48{fill:#b87ab7;}.cls-49{fill:#a55b97;}.cls-50{fill:#cc89b9;}.cls-51{fill:#cfcfdb;}.cls-52{fill:#7c7291;}.cls-53{fill:#03154c;}.cls-54{fill:#727272;}.cls-55{fill:#3d4067;}.cls-56{fill:url(#linear-gradient-4);}.cls-57{fill:url(#linear-gradient-5);}.cls-58{fill:#230615;}.cls-59{stroke:#fff;stroke-width:1.45px;}.cls-60{fill:#210415;}.cls-61,.cls-62{fill:#ff4399;}.cls-62{fill-rule:evenodd;}.cls-63{fill:#f964af;}.cls-64{fill:url(#radial-gradient-10);}.cls-65{fill:#35baae;}</style><radialGradient id="radial-gradient" cx="670.08" cy="735.93" r="720.26" gradientTransform="translate(0 350.96) scale(1 0.52)" gradientUnits="userSpaceOnUse"><stop offset="0" stop-color="#2ea5ff"/><stop offset="1" stop-color="#2ea5ff" stop-opacity="0"/></radialGradient><radialGradient id="radial-gradient-2" cx="742.99" cy="733.27" r="536.78" gradientTransform="translate(0 349.69) scale(1 0.52)" gradientUnits="userSpaceOnUse"><stop offset="0" stop-color="#2ea5ff"/><stop offset="0.33" stop-color="#2ea5ff" stop-opacity="0.66"/><stop offset="0.79" stop-color="#2ea5ff" stop-opacity="0.19"/><stop offset="1" stop-color="#2ea5ff" stop-opacity="0"/></radialGradient><radialGradient id="radial-gradient-3" cx="1096.22" cy="293.19" r="211.32" gradientUnits="userSpaceOnUse"><stop offset="0" stop-color="#05b9ff"/><stop offset="1" stop-color="#4d6eff"/></radialGradient><radialGradient id="radial-gradient-4" cx="272.13" cy="429.1" r="398.48" xlink:href="#radial-gradient-3"/><linearGradient id="linear-gradient" x1="569.05" y1="703.67" x2="569.05" y2="993.98" gradientUnits="userSpaceOnUse"><stop offset="0" stop-color="#bbdfff"/><stop offset="0.37" stop-color="#bbdfff" stop-opacity="0.99"/><stop offset="0.51" stop-color="#bce0ff" stop-opacity="0.97"/><stop offset="0.6" stop-color="#bee2ff" stop-opacity="0.92"/><stop offset="0.68" stop-color="#c0e4ff" stop-opacity="0.85"/><stop offset="0.75" stop-color="#c4e6ff" stop-opacity="0.77"/><stop offset="0.8" stop-color="#c8eaff" stop-opacity="0.66"/><stop offset="0.86" stop-color="#cef" stop-opacity="0.53"/><stop offset="0.91" stop-color="#d2f3ff" stop-opacity="0.39"/><stop offset="0.95" stop-color="#d8f8ff" stop-opacity="0.22"/><stop offset="0.99" stop-color="#dffeff" stop-opacity="0.04"/><stop offset="1" stop-color="#e0ffff" stop-opacity="0"/></linearGradient><linearGradient id="linear-gradient-2" x1="554.02" y1="791.24" x2="554.02" y2="1032.3" xlink:href="#linear-gradient"/><linearGradient id="linear-gradient-3" x1="787.19" y1="822.7" x2="876.49" y2="965.61" gradientUnits="userSpaceOnUse"><stop offset="0.15" stop-color="#99bdff"/><stop offset="0.32" stop-color="#9abeff" stop-opacity="0.99"/><stop offset="0.43" stop-color="#9bbfff" stop-opacity="0.95"/><stop offset="0.53" stop-color="#9ec2ff" stop-opacity="0.89"/><stop offset="0.62" stop-color="#a2c6ff" stop-opacity="0.81"/><stop offset="0.7" stop-color="#a8ccff" stop-opacity="0.7"/><stop offset="0.78" stop-color="#aed2ff" stop-opacity="0.56"/><stop offset="0.86" stop-color="#b6daff" stop-opacity="0.4"/><stop offset="0.93" stop-color="#bfe3ff" stop-opacity="0.22"/><stop offset="1" stop-color="#c8ecff" stop-opacity="0.01"/><stop offset="1" stop-color="#c9edff" stop-opacity="0"/></linearGradient><radialGradient id="radial-gradient-5" cx="642.08" cy="725.35" r="371.64" gradientTransform="translate(-48.85 485.4) rotate(-9.46) scale(1 0.48)" xlink:href="#radial-gradient-3"/><radialGradient id="radial-gradient-6" cx="588.44" cy="596.5" r="112.68" xlink:href="#radial-gradient-3"/><radialGradient id="radial-gradient-7" cx="588.44" cy="586.38" r="303.8" xlink:href="#radial-gradient-3"/><radialGradient id="radial-gradient-8" cx="555.78" cy="502.32" r="81.58" gradientUnits="userSpaceOnUse"><stop offset="0" stop-color="#29b9ff"/><stop offset="1" stop-color="#716eff"/></radialGradient><radialGradient id="radial-gradient-9" cx="276.63" cy="834.07" r="46.32" gradientUnits="userSpaceOnUse"><stop offset="0" stop-color="#a4569b"/><stop offset="0.35" stop-color="#a6599d"/><stop offset="0.59" stop-color="#ad62a2"/><stop offset="0.8" stop-color="#b971ab"/><stop offset="0.98" stop-color="#ca87b8"/><stop offset="1" stop-color="#cc89b9"/></radialGradient><linearGradient id="linear-gradient-4" x1="704.26" y1="512.51" x2="710.23" y2="622.97" gradientUnits="userSpaceOnUse"><stop offset="0" stop-color="#ffa2e5"/><stop offset="0.21" stop-color="#ef97eb"/><stop offset="1" stop-color="#b86eff"/></linearGradient><linearGradient id="linear-gradient-5" x1="689.52" y1="506.92" x2="647.73" y2="578.76" xlink:href="#linear-gradient-4"/><radialGradient id="radial-gradient-10" cx="1025.92" cy="888.14" r="46.32" xlink:href="#radial-gradient-9"/></defs><title>Artboard 7</title><g class="cls-1"><g id="Layer_2" data-name="Layer 2"><path class="cls-2" d="M1491.68,659.65l-3.39-5-174.6,118.15-109.46-75.68L1384.64,575l-3.39-5-182.36,123.4-109.46-75.68L1277.6,490.4l-3.39-5L1084.09,614.05,974.62,538.36l195.94-132.58-3.39-5L969.29,534.67,859.82,459l203.69-137.84-3.39-5L854.49,455.3,745,379.62,956.47,236.53l-3.39-5L739.68,375.93,630.22,300.24,849.43,151.91l-3.39-5L624.88,296.55l-144.4-99.83-3.43,5,142.46,98.5-101.24,68.5L374.58,269.34l-3.44,5,141.76,98-99.4,67.26L262.72,335.35l-3.44,5L408.13,443.23l-99.41,67.26L183,423.59l-3.44,5,123.76,85.56L204,581.39,103.34,511.83l-3.44,5L198.58,585l-99.4,67.26L23.65,600.08l-3.43,5L93.8,655.93-5.6,723.19-56,688.32l-3.43,5L-11,726.83-88,779l3.38,5,79-53.47L103.83,806.2,19,863.61l3.39,5,86.77-58.72,109.47,75.69L126,948.23l3.39,5,94.54-64L333.43,965l-100.35,67.91,3.39,5,102.3-69.22,109.46,75.68-108.11,73.16,3.39,5L453.57,1048,563,1123.7l-115.87,78.4,3.38,5,117.82-79.73,109.47,75.69-123.63,83.66,3.39,5,125.57-85,131.63,91,3.44-5-129.69-89.67,99.4-67.26,106.54,73.66,3.44-5-104.61-72.33,99.4-67.26,81.46,56.32,3.44-5-79.52-55,99.4-67.26,56.37,39,3.44-5-54.44-37.64,99.4-67.26,31.29,21.63,3.44-5-29.35-20.29,99.4-67.26,38.36,26.53,3.44-5-36.43-25.19,101.24-68.5,37.66,26,3.44-5L1319,776.48Zm-298.16,37.41-101.24,68.5L982.82,689.88l101.23-68.51ZM647.76,752.25l-99.4,67.26L438.89,743.83l99.4-67.26Zm-104.1-79.32,99.41-67.26,109.46,75.68-99.4,67.26Zm109.43,83,109.47,75.68-99.4,67.27L553.69,823.2Zm5.38-3.64L757.87,685l109.46,75.68L767.93,828Zm104.77-70.9,99.4-67.26,109.47,75.68-99.4,67.27Zm-5.33-3.69L648.44,602l99.4-67.26,109.47,75.68ZM643.1,598.34,533.64,522.66,633,455.39,742.5,531.08ZM637.73,602l-99.4,67.26L428.86,593.56l99.4-67.27ZM533,672.88l-99.4,67.26L324.09,664.46l99.4-67.27Zm-104.77,70.9L328.78,811,219.31,735.35l99.4-67.26Zm5.34,3.69L543,823.15l-99.4,67.26L334.11,814.73Zm114.8,79.37,109.46,75.68-99.4,67.27L448.92,894.1Zm114.8,79.37L772.58,981.9l-99.4,67.26L563.72,973.47Zm5.37-3.63,99.4-67.27L877.36,911,778,978.26Zm104.78-70.9,99.4-67.27L982.13,840.1l-99.4,67.26ZM878,760.78l99.4-67.27,109.47,75.69-99.4,67.26Zm200.68-143.1L977.48,686.19,868,610.5,969.25,542ZM963.91,538.31l-101.23,68.5L753.21,531.13l101.24-68.5Zm-114.8-79.37-101.23,68.5L638.41,451.76l101.24-68.51ZM624.85,303.88l109.46,75.68L633.08,448.07,523.61,372.38ZM518.24,376,627.7,451.7,528.3,519,418.84,443.28Zm-104.78,70.9L522.93,522.6l-99.4,67.27L314.06,514.18Zm-104.77,70.9L418.15,593.5l-99.4,67.27L209.29,585.08Zm-104.78,70.9L313.38,664.4,214,731.67,104.51,656ZM-.26,726.88l99.4-67.26L208.6,735.3l-99.4,67.27Zm114.8,79.37L213.94,739l109.47,75.69L224,881.94Zm114.8,79.38,99.4-67.27,109.47,75.69-99.4,67.26ZM344.14,965l99.4-67.26L553,973.42l-99.4,67.27Zm114.8,79.37,99.4-67.26,109.47,75.69-99.4,67.26Zm224.27,155.06-109.46-75.68,99.4-67.27,109.46,75.69ZM788,1128.53l-109.47-75.68,99.4-67.27,109.47,75.69Zm104.77-70.9L783.29,982l99.41-67.26,109.46,75.68Zm104.78-70.9L888.07,911.05l99.4-67.26,109.47,75.68Zm104.77-70.9L992.84,840.15l99.4-67.26,109.47,75.68Zm104.77-70.9-109.46-75.68,101.23-68.51,109.47,75.69Z"/><circle class="cls-3" cx="773.46" cy="715.35" r="758.21"/><polygon class="cls-4" points="975.03 20.01 975.03 404.75 1217.41 566.36 1217.41 166.31 975.03 20.01"/><polyline class="cls-5" points="1025.88 250.94 1027.85 181.62 1141.99 238.91 1141.99 352.65 1105.41 328.7"/><polygon class="cls-6" points="1092.86 280.24 1092.86 347.02 1134.93 375.07 1134.93 305.64 1092.86 280.24"/><polygon class="cls-7" points="1009.29 228.02 1009.29 274.61 1051.36 301.18 1051.36 252.74 1009.29 228.02"/><polygon class="cls-8" points="1011.68 146.9 1011.68 188.3 1053.76 216.35 1053.76 172.29 1011.68 146.9"/><polygon class="cls-8" points="1126.36 206.44 1126.36 247.83 1157.63 271.39 1157.63 227.34 1126.36 206.44"/><path class="cls-9" d="M993.37,310.3c3.29-3.09,7.61-8.23,8-15.23s3.36-45.87-6-63.77c-8.78-14.6-37.3-16.72-45.4-11.52C938,238.09,915,288.49,914,323.05c1.23,4.51,12.22,20.46,20.58,22.63C950,349.69,993.37,310.3,993.37,310.3Z"/><path class="cls-10" d="M960,257.58c1.51,4.39,4.2,16.58,0,21.24s18.1,42.65,18.65,42.93,8.22-.41,8.5-1-1.24-31.27-1.24-31.27l-9-8.64c-1.25-.65,2.06-7.78,3.71-13.15s-3.71-21.82-4.94-22S960,257.58,960,257.58Z"/><path class="cls-11" d="M985.89,284.57c-1.26,3.74-17.59,12.61-25.8,0s5.51,44.72,6.33,45.27,19.47,4.66,19.47,4.66,6.77-17.23,5.76-19.2S985.89,284.57,985.89,284.57Z"/><path class="cls-10" d="M1015.38,328.71c1.36-2.23,3.48-.27,5.9-3.53,6.07-8.23,15.74-22.54,32.57-21.26,2.47,1.85-.21,4.94-8,3.7,3.7,2.88,6.17,9.26-.83,6.58,1.44,2.27,2.68,4.94-1,3.81-3.49-1.13.21,5.25-4.73,2.37-3.54-1-2.67-.62-2.67-.62s-6.24,14.66-13.92,22C1015.25,348.91,1015.38,328.71,1015.38,328.71Z"/><path class="cls-10" d="M999.14,394.6c2.87,13.79-3.65,111.33-5.57,119.28s-3.29,1.92-3.29-1.64-18.69-84.52-19.2-103.41C970.53,388.26,977.75,376.22,999.14,394.6Z"/><path class="cls-10" d="M932.24,386.61c-.55,15.08,8.67,117.12,15.53,138.52-.27,1.92,2.81,6.31,3.63,3.12S963.75,422.82,967,413.87,934,377.52,932.24,386.61Z"/><path class="cls-12" d="M1021.28,325.18c-4.12,4.11-19.68,8.36-28-16.46-7.41,9.87-7.41,30.72-7.41,30.72,9.33,4.66,12.9,14.26,31.82,6l3.57,3.22,9-7.33Z"/><path class="cls-13" d="M976.57,280.2,990,286.5l1.64,13.44,5,9.09a6.34,6.34,0,0,1-.46,6.77l-7.82,10.67c-4.34,16.84,15.07,71.13,14,87.3l-48.55,7.68c-11.44,1.79-21.12-3.84-22.21-6-13.72-46.08,23.86-59,23.19-68.95,1.09-8.51-15.89-40.22-28-53.38,3.57-5.49,33.73-15,33.73-15s16.79,24.44,20.35,39.52C982.55,313.2,981.64,295.28,976.57,280.2Z"/><path class="cls-10" d="M937,371.5c-5.42-1.44-18.72-7.72-23.45-15.54s15.84-10.28,15.84-10.28c1.85,3.5,9.26,17,11.73,18.18s7-1.66,7-1.66,2.16,3.18-1.49,3c-1.85.21-.56,3.6-.56,3.6s6,5.95,5.54,6.89c0,1.19-3.28,1.91-5.6-2.93.52,2.26,2.56,4.65,2.42,5-.36,1-1.49,3.5-4.27-3.29.21,1.59,0,3.86-.46,4.11s-2.26,1.7-2.31-4.88c-.72,1-.21,3.8-.83,3.75s-2-3.25-1.85-4.52A15.81,15.81,0,0,0,937,371.5Z"/><path class="cls-13" d="M929.39,290.74c-4.26,4-44.71,56.65-11,71.46l15.09-15.08L929.39,340l-2.57.55s13.82-29.9,17.38-30.45S941.46,291.69,929.39,290.74Z"/><path class="cls-10" d="M993,240.15c.61,8.64.64,23.81.15,26-1.44,6.58-14.78,11.84-14.78,11.84-4.12.41-20.82-5.42-22.88-13.44-1.65-6.38-6.17-22.27-.32-35C958.63,222,989.05,209.91,993,240.15Z"/><path class="cls-14" d="M951.56,261.94c1.34,1.67,3.42,2.24,4.64,1.26s1.12-3.13-.22-4.8-3.42-2.24-4.64-1.26S950.22,260.27,951.56,261.94Z"/><path class="cls-9" d="M985.46,227.81s-18.19,2.88-28.09,13.09c-2.47,4.39.84,23.29.55,23.68s-3.5-7.3-4.38-7.82-6-7-6.59-11.79,10-26,17.66-27.12,32.2,4.4,30.68,27C992.76,238.77,990.4,230.55,985.46,227.81Z"/><path class="cls-15" d="M988.91,522.45l1.37-7.94c0-.33,0-.53.1-.55,2.21,9.23,3.74-3.84,3.84-4.53,0,0-.44,9.05-.23,11.62,1.64,0,4.42,1.64,5.87,3.39L991.52,523s-.46-2.49-.82-4.86l-1.06,4.31Z"/><path class="cls-15" d="M953.52,529.38l-.94-8.74c0-.33,0-.53-.13-.54-3.08,9.22-6.72-3.85-6.86-4.53,0,0,2.13,9,1.85,11.61-2.29,0-6.15,1.65-8.17,3.4l12.33-1.47a22.44,22.44,0,0,1,.4-4.84l.5,5.11Z"/><path class="cls-15" d="M1039.7,308.11A23.88,23.88,0,0,1,1041,312a2.64,2.64,0,0,1,0,2c-.78,1.85-2.78-.39-2.52-1.79l-.81-.11a3.4,3.4,0,0,1-1.66,3.07c-.45.27,0,1,.41.71a4.19,4.19,0,0,0,2.07-3.78c0-.45-.72-.58-.81-.11-.38,2.05,1.63,4.45,3.81,3.19.82-.46.7-1.14.56-2a24.6,24.6,0,0,0-1.7-5.51c-.21-.49-.92-.07-.71.41Z"/><path class="cls-15" d="M1046.75,310.51c-1.17-.6-3-1.52-4.31-.81-1.51.81-.35,2.46-.14,3.62.1.52.89.3.8-.22-.16-.84-1.26-2.42.05-2.78,1-.27,2.37.48,3.18.9.47.24.89-.47.42-.71Z"/><path class="cls-15" d="M1038.47,316.07a3.08,3.08,0,0,0,.15,2.15,5.21,5.21,0,0,0,1,2.1c.36.39.94-.19.58-.58a4.08,4.08,0,0,1-.69-1.58c-.12-.38-.49-1.28-.28-1.67s-.47-.89-.71-.42Z"/><path class="cls-16" d="M1021.66,348a28.38,28.38,0,0,1-9-19.23c0-.52-.86-.53-.82,0a29.16,29.16,0,0,0,9.28,19.81c.39.37,1-.22.58-.58Z"/><path class="cls-16" d="M927.46,339.75a50.18,50.18,0,0,0-12.56,6.47c-3,2.18-5.65,4.9-5.76,8.84a.41.41,0,0,0,.82,0c.13-4.55,4-7.32,7.45-9.55a51,51,0,0,1,10.27-5c.5-.17.28-1-.22-.79Z"/><path class="cls-16" d="M928.92,336.12a41.69,41.69,0,0,0-7.39-1.71.42.42,0,0,0-.21.77l3.16,1.55,1.46.72a11.2,11.2,0,0,0,1.17.53l.19-.47-.09,0,.56.15,0-.06c-.23-.48-.94-.06-.71.41l0,.07a.43.43,0,0,0,.57.14l.08,0a.39.39,0,0,0,.19-.46c-.27-.7-1.43-1-2-1.26l-4.13-2-.21.77a40.12,40.12,0,0,1,7.17,1.67.41.41,0,0,0,.22-.79Z"/><path class="cls-16" d="M974.51,323a13.24,13.24,0,0,1-13.59,6.57c-5.48-.87-9.82-4.86-12.13-9.76-.23-.48-.94-.06-.71.42,2.47,5.24,7.26,9.48,13.14,10.22a14.06,14.06,0,0,0,14-7c.25-.46-.46-.88-.71-.41Z"/><path class="cls-16" d="M989.11,322c-2,1.15-4.28,1.05-6.51.92-.53,0-.52.79,0,.82,2.39.14,4.79.19,6.93-1a.41.41,0,0,0-.42-.71Z"/><path class="cls-16" d="M940.12,314.78c2.92-3,8.27-2.91,12.17-2.63.53,0,.53-.78,0-.82-4.12-.3-9.66-.36-12.76,2.87-.36.38.22,1,.59.58Z"/><path class="cls-16" d="M941.29,313.2a32.89,32.89,0,0,0,6.51-6.82c.31-.43-.4-.84-.71-.41a32.18,32.18,0,0,1-6.38,6.65c-.41.33.17.91.58.58Z"/><path class="cls-17" d="M981.64,266.84c0,1,1.42,1.81,3.16,1.81s3.15-.81,3.15-1.81-1.41-.52-3.15-.52S981.64,265.83,981.64,266.84Z"/><path class="cls-10" d="M1070.46,330.29c9.43,10.68,37.59,47.83,36.21,58.64-1.72,2.51-25.85,16.78-32.73,12.12-4.56-3.1-23.57-19.59-29.91-24.38C1026,363.09,1048.21,315.7,1070.46,330.29Z"/><path class="cls-9" d="M1047.9,364.2c5.14-2.21,40.31-27.34,31.25-42.69s-20-3.41-23.72,7.46c-2.15-4.14-11.83-12-15.81,11.79-5.28-1.51-17.94,2.6-16.11,10.85s.9,36.26,31.39,39.5c-.66-2,.78-6.47,2.08-5.62s8.15,5.12,8.15,5.12l1.53-1.22S1052.1,379.34,1047.9,364.2Z"/><path class="cls-10" d="M1055.76,392.2c2.17,2.72,5.24,3.88,6.86,2.59s1.18-4.54-1-7.26-5.23-3.89-6.86-2.6S1053.6,389.47,1055.76,392.2Z"/><path class="cls-15" d="M1035.72,524s4.5,158,4,164c3,2.5,9.61,0,9.61,0l24.56-132.5s23.33,141.5,22.83,148l12-3s2.5-167.1,4-182.55S1049.22,470,1035.72,524Z"/><path class="cls-18" d="M1048.05,408.24c-18.33,19.07-45,67.07-41.33,90.07,2.33,4.67,19.33,9.67,33.33,8.34S1048.05,408.24,1048.05,408.24Z"/><path class="cls-10" d="M1016.27,503.93a63.16,63.16,0,0,0,23.78,2.72c6.31-.6,8.55-20.63,9.12-42.46Z"/><path class="cls-10" d="M1163.72,410.08c6.16-3.74-5-9.1-8.84-9.43,1.84-1.17,9-6.84,7.67-9.84s-15.69,4.59-19.33,6.8l-.17-.15s0,.45-.14,1.22q-.08.54-.12,1.08c-.86,7.46-3.57,30.73-4.41,34.36-1,4.34-14-4-29.08-24.23,0,0-19.58-4.1,3.08,50.57s47.34,31,52.67,12.33c4.49-15.49,1.14-32-4.24-45.6,4.91-1.77,6-9.08,2.24-9.54C1172.72,417,1167.05,410.81,1163.72,410.08Z"/><path class="cls-19" d="M1138.38,434.39c-1,4.33-14-4-29.08-24.24,0,0-19.58-4.1,3.08,50.57s47.34,31,52.67,12.33a55.23,55.23,0,0,0,2.08-16.14c-7.89-6.52-23.08-18.93-28.7-22.77A1.84,1.84,0,0,1,1138.38,434.39Z"/><path class="cls-19" d="M1060.22,395.48l-1.63,6.66c-4.5.5-36.87,19.75-31.37,57.8,5.5,37,3.5,60.73,3.5,60.73l5,3.31,74.5,2.5,7.5-5.81S1124,436,1119.65,425c-8-20.33-29.93-24.5-29.93-24.5Z"/><path class="cls-10" d="M1100.78,379.26l-4.56,4.63S1105.69,381.54,1100.78,379.26Z"/><polyline class="cls-15" points="1045.55 687.67 1045.55 696.17 1043.38 696.17 1043.38 692.92 1038.38 693.67 1035.88 696.17 1025.88 696.17 1029.38 691.42 1039.66 690.92 1041.88 690.67 1041.63 687.42"/><polyline class="cls-15" points="1100.22 699.36 1100.22 707.86 1102.38 707.86 1102.38 704.61 1107.38 705.36 1109.88 707.86 1119.88 707.86 1116.38 703.11 1106.1 702.61 1103.88 702.36 1104.13 699.11"/><polygon class="cls-20" points="393.32 155.92 393.32 540.66 150.94 702.28 150.94 302.23 393.32 155.92"/><ellipse class="cls-21" cx="227.31" cy="565.38" rx="26.16" ry="51.8"/><polygon class="cls-22" points="234.71 539.08 208.65 555.05 208.65 557.57 234.71 540.45 234.71 539.08"/><polygon class="cls-22" points="234.71 549.72 208.65 565.68 208.65 568.2 234.71 551.09 234.71 549.72"/><polygon class="cls-22" points="234.71 559.35 208.65 575.32 208.65 577.84 234.71 560.72 234.71 559.35"/><polygon class="cls-22" points="282.1 303.98 282.1 317.02 177.25 385.08 177.25 366.72 282.1 303.98"/><polygon class="cls-22" points="282.1 344.98 282.1 352.02 177.25 420.08 177.25 407.72 282.1 344.98"/><polygon class="cls-22" points="282.1 403.25 282.1 406.3 220.81 446.56 220.81 440.81 282.1 403.25"/><polygon class="cls-22" points="282.1 417.78 282.1 420.82 220.81 461.09 220.81 455.34 282.1 417.78"/><polygon class="cls-22" points="282.1 432.31 282.1 435.35 220.81 475.62 220.81 469.87 282.1 432.31"/><path class="cls-10" d="M286.38,415.36c-2-.25-5-.4-6.78,1.82-3.14,1.2-5.59,3.51-5.38,5.68a2.42,2.42,0,0,0-.53,2.55c-2.62,1.55-1.23,2.13-.86,2.48,1.31,1.28,12.2-2.5,12.2-2.5s3.59.45,3.44,1.65,2.54,1.35,4.13.77c0-.94-2.64-3.76-2.64-3.76,4-.6,30.44-6,34.92-7.77s11.31-47.56,11.31-47.56C331.33,374,319.8,397.1,286.38,415.36Z"/><path class="cls-18" d="M328.89,406.8c3.69-13.9,7.3-51.53,7.3-51.53-3.92,4.27-12.16,33.51-32.67,49l7.45,15.5c2.29-.51,4.5-1,6.48-1.49Z"/><path class="cls-10" d="M293.81,303.73c4.55,12.08,22.33,50.39,31.57,53.87,2.74-.31,24.4-13.57,23.59-21.05-.54-5-5.68-27.19-6.82-34.29C338.92,282.09,291.57,279.73,293.81,303.73Z"/><path class="cls-9" d="M330.53,300.06c-3.95,3.18-39,20.67-47.43,6.9s5.77-17.47,16-15.82c-2.4-3.48-4.57-14.55,16.15-7.65,1-4.87,9.68-13.26,15.51-8.28s28.64,16.1,18.3,41.88c-1.31-1.37-5.51-2.12-5.39-.72s.65,8.69.65,8.69l-1.63.71S340.87,309.85,330.53,300.06Z"/><path class="cls-10" d="M349.6,318.24c1.26,2.89.89,5.84-.83,6.59s-4.14-1-5.4-3.87-.89-5.84.83-6.59S348.34,315.35,349.6,318.24Z"/><path class="cls-15" d="M306,331.31c4.16-2.52,8.36-5,12.57-7.4,1.52-.87,3.05-1.76,4.6-2.59.39-.21-.07-.42.17.26s.79,1.57,1.11,2.36c2.08,5.23,2.76,12.12-2.46,15.77-3.74,2.61-7.19,1.6-10.15-1.47a38.36,38.36,0,0,1-5.66-7.62.5.5,0,0,0-.86.51,41.05,41.05,0,0,0,4.87,6.79c1.58,1.8,3.48,3.85,5.94,4.29,5.28.94,10-3.82,10.74-8.71.63-4-.56-8.39-2.41-12-.32-.6-.54-1.32-1.28-1.33s-2.45,1.32-3.16,1.72q-7.32,4.17-14.53,8.52A.5.5,0,0,0,306,331.31Z"/><path class="cls-15" d="M322.67,321.4a180.61,180.61,0,0,0,20.24-3.88.32.32,0,0,0-.17-.61,182.64,182.64,0,0,1-20.07,3.86c-.4.05-.4.69,0,.63Z"/><path class="cls-10" d="M311.85,413.18c-3,7.14-12.63,27.71-17.41,37.73-2,0-3.9-.26-4.52-.29-1.21,2.62.12,4.29,2.41,4.93a9.65,9.65,0,0,0-.53,1.5c-.65,3.26-.65,11.31,4.35,10.66,3.05.87,5.58,1.74,5.62-2,1.35.44,5,.87,4.83-2.61,1.3-.43,5.87,0,3.91-4.78-1.3-2.83-3-6.1,1.53-7.84s22.41-12.18,29.81-25.46S311.85,413.18,311.85,413.18Z"/><path class="cls-23" d="M416.6,441.77c-1.66,13.66.34,111.33,28,152l-1.66,2.66,1.66,5.67h-1.66l-3.34-3s-6.33,4-5.66,7.33c-1.34,1.67-14.34,2.34-14.34,2.34a104.33,104.33,0,0,1,10.79-7s5.21-4.34,4.88-5.34-43.54-66.36-43.33-114,1.66-55.33,1.66-55.33Z"/><path class="cls-15" d="M420.94,429.1c0,1,2,23.33,0,27-1,2.33-11.67,10.33-12.34,11.33-4,9.67-39.33,103.34-32,137h-2.33v8.5H372.1v-3.25l-5,.75-2.5,2.5h-10l3.5-4.75,10.28-.5,2.22-.25-.25-3.25-3.75.25c-4.25-16.25-9.35-95.34-.33-163.66C375.27,437.77,420.94,429.1,420.94,429.1Z"/><path class="cls-24" d="M363.19,470.92l58.31-33.19c-.26-4.55-.56-8.24-.56-8.63,0,0-4.81.91-11.61,2.25l-44.58,22.23C364.14,459.33,363.63,465.13,363.19,470.92Z"/><path class="cls-19" d="M336.94,351.1l16-17,4.71,6.14c12.33,2.67,77,38.14,67.62,90,.15-1-1.17,4-5,4.5-14.84,5.81-54.8,18.28-54.8,18.28s-5,0-5.32-2.46c-1.17-10.2-4.4-36.73-6.55-40.49-6.66,12-25,31-25,31l-18.33-26.67S329.65,358.85,336.94,351.1Z"/><path class="cls-25" d="M350.43,415.6c6.76-8.72,7.62-20.11,5.7-30.65-.11-.63-1.07-.37-1,.26,1.84,10.15,1.07,21.28-5.45,29.69-.39.5.32,1.21.71.7Z"/><path class="cls-25" d="M364,387.27a57.74,57.74,0,0,1-11.71,23.84c-.41.49.29,1.21.7.71a58.65,58.65,0,0,0,12-24.28c.15-.63-.82-.89-1-.27Z"/><path class="cls-25" d="M310,414.19q5.12,7.94,10.24,15.88l4.85,7.52c.14.21,3.46,6,4.24,4.79.35-.54-.51-1-.87-.5l-.06.1a.5.5,0,0,0,.08.61.65.65,0,0,0,.77.21.51.51,0,0,0,.37-.48,1.26,1.26,0,0,0-.29-.73c-.57-.94-1.65-1.82-2.3-2.83q-2.69-4.18-5.39-8.36l-10.78-16.72c-.35-.54-1.21,0-.86.51Z"/><path class="cls-25" d="M310.59,414.11l21.88,24.06c.45.49,1.1-.22.71-.71a286.13,286.13,0,0,1-19.69-29.1l-.68.68q11.76,8.35,24.16,15.74a.5.5,0,0,0,.5-.86q-12.37-7.4-24.16-15.74c-.42-.3-.93.28-.68.69a288.55,288.55,0,0,0,19.84,29.3l.71-.71-21.88-24c-.43-.48-1.14.23-.71.7Z"/><path class="cls-25" d="M361.13,446.37a191.1,191.1,0,0,0,55.27-28.49.5.5,0,0,0-.5-.86c-17,8-34.15,16-52.58,20.16-.62.14-.36,1.1.27,1,18.51-4.15,35.74-12.21,52.81-20.26l-.5-.86a190,190,0,0,1-55,28.38c-.61.2-.35,1.17.26,1Z"/><path class="cls-25" d="M358.34,338.21l-14,11.28-6.8,5.49c-1.34,1.08-3.38,2.13-3.15,4.09.07.64,1.07.64,1,0-.23-2,4.16-4.43,5.5-5.52l6-4.88,12.09-9.76c.5-.4-.21-1.11-.71-.7Z"/><path class="cls-15" d="M294.78,458.77a11.75,11.75,0,0,0,.59,3.47c.14.47,1.11,4.64.49,4.61s-.64,1,0,1c1,0,1.11-1.76,1.12-2.41.06-2.3-1.21-4.37-1.2-6.67a.5.5,0,0,0-1,0Z"/><path class="cls-15" d="M302.33,466.55a3.09,3.09,0,0,0-.53-2.46c-.59-1.22-1.19-2.43-1.78-3.65-.28-.58-1.14-.08-.86.5.4.84.81,1.67,1.22,2.5s1.28,2,1,2.84c-.22.61.75.87,1,.27Z"/><path class="cls-15" d="M307.31,463.31a14.54,14.54,0,0,0-4.51-7c-.48-.42-1.19.28-.71.7a13.65,13.65,0,0,1,4.25,6.55.5.5,0,0,0,1-.26Z"/><path class="cls-15" d="M273.62,426.07a21.6,21.6,0,0,1,5.28-1.59c.63-.11.36-1.07-.27-1a23.12,23.12,0,0,0-5.51,1.69c-.59.26-.08,1.12.5.86Z"/><path class="cls-15" d="M274.42,423.17a10.32,10.32,0,0,1,5.93-2.19c.64,0,.65-1,0-1a11.35,11.35,0,0,0-6.44,2.33c-.5.38,0,1.25.51.86Z"/><path class="cls-15" d="M277.21,419a8.53,8.53,0,0,1,4.76-.52c.63.11.9-.86.26-1A9.52,9.52,0,0,0,277,418c-.59.24-.33,1.21.26,1Z"/><polygon class="cls-26" points="460.3 955.49 676.49 1079.5 677.8 761.98 460.3 622.18 460.3 955.49"/><polygon class="cls-27" points="445.27 956.88 660.96 1103.32 662.77 863.37 445.27 723.58 445.27 956.88"/><polygon class="cls-28" points="661.77 863.37 659.96 1103.32 981.28 898.23 983.71 652.97 661.77 863.37"/><path class="cls-29" d="M451.48,747.48,650.9,865.3a17.69,17.69,0,0,0,19.8.45L976.57,666a17.71,17.71,0,0,0,.17-29.69L776.72,526a17.7,17.7,0,0,0-18.92-.35L452.54,717.88A17.72,17.72,0,0,0,451.48,747.48Z"/><path class="cls-30" d="M451.48,735.39,650.9,853.21a17.71,17.71,0,0,0,19.8.45L976.57,653.94a17.71,17.71,0,0,0,.17-29.69l-200-110.31a17.74,17.74,0,0,0-18.92-.35L452.54,705.79A17.72,17.72,0,0,0,451.48,735.39Z"/><path class="cls-31" d="M724.81,587.49,685.19,562l-194,119.91,50.05,37.22a14.83,14.83,0,0,0,16.57.38L724.67,612.33A14.82,14.82,0,0,0,724.81,587.49Z"/><path class="cls-32" d="M463.17,634.26l66.56,49.5a14.83,14.83,0,0,0,16.57.38L713.14,577a14.82,14.82,0,0,0,.14-24.84L646.22,509a14.8,14.8,0,0,0-15.82-.29L464.06,609.51A14.81,14.81,0,0,0,463.17,634.26Z"/><path class="cls-33" d="M463.17,624.15l66.56,49.5a14.81,14.81,0,0,0,16.57.37L713.14,566.88a14.82,14.82,0,0,0,.14-24.84l-67.06-43.2a14.8,14.8,0,0,0-15.82-.3L464.06,599.4A14.81,14.81,0,0,0,463.17,624.15Z"/><path class="cls-34" d="M806.54,448c-6.64,75.56-6,162.42-5.5,187.62,0,.55.43.08.44.57.08,3.73.13,5.75.13,5.75h-4.18l-3.7,2.47v1.35H804l1.11-5.17,1.48.24v4.44l.86.49V636l2,.12L830,493.87S859.77,597.13,863.1,632.5c1.22,13,1.23,15.77,1.23,15.77h1.6l.47,6.6,2.82,3.3,4.42-3.95-3.39-5v-2.6l2.71-.24-3-58.9s1.43-143.37-.37-147.62-55.69-2.66-55.69-2.66-6.88,4.89-7.4,10.8"/><path class="cls-35" d="M813.94,437.24s-6.88,4.89-7.4,10.8c-.31,3.55-.6,7.12-.89,10.72l64.58-8.67c-.14-5.84-.33-9.55-.6-10.19-1.79-4.24-55.69-2.66-55.69-2.66"/><path class="cls-36" d="M815.66,359.57c-3.2,9.36-14,87.24-14,87.24s3.7,1.72,4.93,1.23,66.3-2.47,66.3-2.47l1.72-2.46V358.58s-37.46-21.69-58.9,1"/><path class="cls-37" d="M842.77,320.38c-7.89,2.47-43.87,10.35-68.51,93.65,9.36,6.9,15.61,11.66,64.9,12.32,6.9,5.26,30.55,11.5,49.61,10.84,3.29-6.24,49.62-97.91-46-116.81"/><polygon class="cls-38" points="847.08 336.12 840.88 329.09 841.62 328.44 847 334.55 855.18 323.3 855.98 323.88 847.08 336.12"/><polygon class="cls-38" points="831.03 335.12 828.48 324.91 829.33 324.7 831.59 333.75 837.86 329.85 838.32 330.59 831.03 335.12"/><path class="cls-36" d="M875.6,386a220.11,220.11,0,0,1-51,13.78c-.56.08-.4,1,.13,1,13.85.27,28.27.35,40.89-6.13l-.5-.86a113,113,0,0,1-15.74,8.65c-.58.26-.08,1.11.49.85a113.54,113.54,0,0,0,15.75-8.64.5.5,0,0,0-.5-.86c-12.45,6.41-26.73,6.27-40.39,6,0,.33.09.65.13,1a219.84,219.84,0,0,0,51-13.78c.58-.23.33-1.19-.26-.95"/><path class="cls-36" d="M807.63,386.87c4.23,3.8,10.15,5.41,15.36,7.44l-.12-.9a33.41,33.41,0,0,1-11.18,4.38c-.62.12-.36,1.07.27.95a33.87,33.87,0,0,0,11.41-4.48.5.5,0,0,0-.12-.9c-5-2-10.82-3.5-14.93-7.19-.47-.42-1.17.27-.69.7"/><path class="cls-8" d="M841.63,327.66S839,351.1,835.39,368c-.48,2.24-2.8,38.85.6,40.61,2.63,1.37,8.29,22.33,8.42,32.09L836,446l-9.82-6.16s5.43-18.15-3.94-28.35c-7.15-5.91,8.58-45.84,9.53-49.53s6.91-34.28,6.91-34.28Z"/><path class="cls-36" d="M852.13,404.27a16.5,16.5,0,0,0,0,3.37c.09,1.12.21,2.24.35,3.35.29,2.24.61,4.46,1,6.69s.76,4.43,1.2,6.64.87,4.42,1.37,6.61l-.88.06a97.06,97.06,0,0,1,1.6-12.25c.78-4,1.73-8,2.64-12l.83.12c-.13,1.89-.22,3.78-.18,5.68a54.05,54.05,0,0,0,.42,5.68c.25,1.88.56,3.76,1,5.62s.89,3.71,1.4,5.55a63.09,63.09,0,0,1-2.88-11.1,53.88,53.88,0,0,1-.56-11.49l.83.12c-.88,4-1.78,8-2.52,12a118,118,0,0,0-1.65,12.14l-.23,3-.66-3c-1-4.41-1.72-8.87-2.31-13.35-.3-2.24-.57-4.49-.73-6.74-.08-1.13-.15-2.25-.19-3.38a14.67,14.67,0,0,1,.2-3.38"/><path class="cls-38" d="M806.54,397.76A15.14,15.14,0,0,0,803.4,395c-1.15-.75-2.45-1.32-3.68-2.16a9.14,9.14,0,0,1,4.21,1.33,6.62,6.62,0,0,1,1.67,1.54,5.09,5.09,0,0,1,.94,2"/><path class="cls-38" d="M806,396.78a67.76,67.76,0,0,1,.21-10,74.59,74.59,0,0,1,1.6-9.85,73.14,73.14,0,0,1,2.92-9.55l.93-2.32,1-2.28c.73-1.5,1.46-3,2.28-4.44-.3.78-.61,1.55-.94,2.31l-.89,2.31-.87,2.33-.79,2.34c-1,3.14-1.94,6.31-2.68,9.52s-1.34,6.46-1.81,9.72-.75,6.56-1,9.88"/><path class="cls-38" d="M873.6,392.16c.6-2.41,1.2-4.81,1.71-7.22s1-4.84,1.34-7.27.68-4.88.94-7.33c.13-1.23.23-2.46.32-3.7s.17-2.46.26-3.71c.13,1.24.17,2.48.23,3.73s0,2.48,0,3.73a61.68,61.68,0,0,1-.73,7.43,60.27,60.27,0,0,1-1.58,7.29,55.91,55.91,0,0,1-2.44,7.05"/><path class="cls-39" d="M840.14,426.31c.54.41-18-12.68-28.53-21.65-2.13,5.73-11.12,13.69-17.37,18.42,9,1.82,23.32,3.23,45.9,3.23"/><path class="cls-10" d="M851,404.66l-.5,26.87c-12.39-3.24-41.47-25.14-43.94-33.77.25-1.72,34.42,6.66,44.44,6.9"/><path class="cls-10" d="M820.59,262c-.74,14.29.33,61.11,8.17,68.75,2.92.91,30.82-3,33.31-10.92,1.66-5.29,6.3-30.14,8.3-37.87C876,260,829,236.59,820.59,262"/><path class="cls-9" d="M862.33,295.81c-1.62,14.1-2.75,26.52-10.35,23.51-6.6-7.09-10.54-11.28-16.61-11.4-5.26-.1-13.12-.84-11.25,11.07,1.26,7.15,2.35,9.51,4.64,11.74,2.92.91,30.82-3,33.31-10.92,1.12-3.55,3.58-15.93,5.68-26-1.75-3-4.57-4.21-5.42,2"/><path class="cls-10" d="M827,315h10.87s-3.75-6.58-10.87,0"/><path class="cls-9" d="M859.53,274.54c-5.42,1.48-48.8,3.7-51.26-14s13.62-15.19,23.32-8.95c-.9-4.61,1.82-16.82,19.8-.61,3.21-4.49,15.74-9.17,19.45-1.53s22,29.08,0,50.68c-.72-2-4.66-4.6-5.15-3.12s-3.21,9.12-3.21,9.12h-2s5.18-17-1-31.55"/><path class="cls-10" d="M871.52,298.22c0,3.5-1.69,6.33-3.78,6.33s-3.76-2.83-3.76-6.33,1.68-6.32,3.76-6.32,3.78,2.83,3.78,6.32"/><path class="cls-39" d="M852.63,404.66c2.21-3.45,18.89-12.32,20.41-12.32s8.44,6.34,8.44,6.34,1.21,11.65-5.69,12.14c-6.65.25-15-4.43-15-4.43Z"/><path class="cls-15" d="M836.93,289.17c4.5-.6,9-1.13,13.53-1.65,2.12-.24,4.24-.49,6.37-.7a8.32,8.32,0,0,0,1.8-.17,1.73,1.73,0,0,1,.51,0c.14,0-.29-.56-.26-.16.57,7.56-1.54,18-10.92,18.52-4.68.25-7-2.82-8.35-6.85a43.72,43.72,0,0,1-2.13-9.52c-.07-.7-1.18-.71-1.11,0a45.16,45.16,0,0,0,2.07,9.49c.88,2.68,2,5.6,4.61,7,5,2.65,11.24.11,14.13-4.34,2.38-3.66,3.1-8.41,2.93-12.72,0-.6.12-2-.49-2.44s-2.83.13-3.59.2q-9.57,1-19.1,2.27c-.7.09-.71,1.2,0,1.11"/><path class="cls-15" d="M831.27,288.76c0,2.91-.14,5.81-.25,8.72-.09,2.15-.6,4.61-.35,6.74.09.75.16.28,0,.33a4.34,4.34,0,0,1-1.24.1,17.12,17.12,0,0,1-3.85-.32c-3.75-.75-7.08-2.88-8.2-6.71-.54-1.85-1.17-7.05.69-8.17.7-.42,2.81-.13,3.64-.17l2.74-.09c2.43-.05,4.86,0,7.29.07.64,0,.64-1,0-1-4.86-.2-9.72,0-14.58.25a.49.49,0,0,0-.47.36c-1,4.34-1.32,9.41,1.92,12.93,2.23,2.41,5.55,3.47,8.74,3.75,1.29.12,3.7.58,4.24-.83.69-1.8.29-4.73.37-6.64.13-3.11.24-6.22.28-9.33a.5.5,0,0,0-1,0"/><path class="cls-15" d="M832.29,290.55a3.88,3.88,0,0,1,1.78-1.14c.63-.19,1.8-.35,2.3.21s1.12-.23.7-.7c-1.4-1.57-4.32-.32-5.48.94-.43.46.27,1.16.7.69"/><path class="cls-15" d="M867.47,403.94a10.92,10.92,0,0,1,3.49,6.45c.09.63,1,.36.95-.26a11.73,11.73,0,0,0-3.74-6.89c-.47-.42-1.17.27-.7.7"/><path class="cls-15" d="M871.4,401.65a14,14,0,0,1,4.62,8.23c.11.62,1.06.36,1-.26A14.78,14.78,0,0,0,872.1,401c-.47-.42-1.18.28-.7.7"/><path class="cls-15" d="M873.89,398.87a13.23,13.23,0,0,1,5.88,7.4c.19.6,1.14.34,1-.26a14.3,14.3,0,0,0-6.33-8,.49.49,0,0,0-.5.85"/><path class="cls-31" d="M517.28,582.49,544.78,603a6.13,6.13,0,0,0,6.85.15l69-44.28a6.13,6.13,0,0,0,.06-10.27l-27.72-17.86a6.13,6.13,0,0,0-6.54-.12l-68.75,41.69A6.12,6.12,0,0,0,517.28,582.49Z"/><path class="cls-31" d="M559,612.4l27.51,20.46a6.13,6.13,0,0,0,6.85.16l69-44.29a6.12,6.12,0,0,0,0-10.26l-27.71-17.86a6.11,6.11,0,0,0-6.54-.12l-68.76,41.68A6.12,6.12,0,0,0,559,612.4Z"/><path class="cls-40" d="M559,607.93l27.51,20.45a6.11,6.11,0,0,0,6.85.16l69-44.29a6.12,6.12,0,0,0,0-10.26l-27.71-17.86a6.11,6.11,0,0,0-6.54-.12L559.38,597.7A6.12,6.12,0,0,0,559,607.93Z"/><path class="cls-40" d="M517.28,578l27.5,20.46a6.13,6.13,0,0,0,6.85.15l69-44.28a6.13,6.13,0,0,0,.06-10.27l-27.72-17.85a6.13,6.13,0,0,0-6.54-.13l-68.75,41.69A6.12,6.12,0,0,0,517.28,578Z"/><path class="cls-41" d="M517.28,573l27.5,20.46a6.13,6.13,0,0,0,6.85.15l69-44.29a6.12,6.12,0,0,0,.06-10.26l-27.72-17.86a6.13,6.13,0,0,0-6.54-.12l-68.75,41.69A6.12,6.12,0,0,0,517.28,573Z"/><path class="cls-42" d="M531.8,562.53l18.75,13.94a4.17,4.17,0,0,0,4.66.11l47-30.17a4.18,4.18,0,0,0,0-7l-18.88-12.16a4.18,4.18,0,0,0-4.46-.09l-46.84,28.4A4.17,4.17,0,0,0,531.8,562.53Z"/><path class="cls-43" d="M569.15,604.87l22.13,16.45a4.94,4.94,0,0,0,5.51.13l55.46-35.62a4.93,4.93,0,0,0,0-8.26L630,563.21a4.92,4.92,0,0,0-5.26-.09l-55.29,33.52A4.93,4.93,0,0,0,569.15,604.87Z"/><polygon class="cls-44" points="477.12 474.48 606.61 409.09 621.5 517.21 496.54 589.08 477.12 474.48"/><polygon class="cls-45" points="483.59 477.72 613.08 412.32 627.97 520.45 503.01 592.32 483.59 477.72"/><polygon class="cls-7" points="494.5 481.43 604.42 425.92 617.07 517.71 510.99 578.72 494.5 481.43"/><ellipse class="cls-46" cx="253.02" cy="848.91" rx="21.39" ry="7.28"/><path class="cls-47" d="M228.26,807.1l7.22,37.21c0,3.73,8.09,6.76,18.07,6.76s18.07-3,18.07-6.76l7.23-37.21Z"/><path class="cls-48" d="M278.85,807.1H228.26l1.56,8c8.56,6.16,27.74,15.71,44.05,17.62Z"/><ellipse class="cls-49" cx="253.17" cy="810.28" rx="32.45" ry="11.26"/><ellipse class="cls-50" cx="253.17" cy="808.49" rx="32.45" ry="11.26"/><ellipse class="cls-48" cx="253.55" cy="807.1" rx="25.3" ry="8.08"/><path class="cls-9" d="M672,432.55c-8.71,13.43-19.59,62-12.33,80.91s26.84,17.78,30.11,14.51,27.93-42.45,27.93-42.45l-4.35-40.27S678.17,419.13,672,432.55Z"/><path class="cls-31" d="M736.05,769.09l-29.4-13.57,13.47-3.85a2,2,0,0,0-.42-3.82l-17-1,3.76-39.09-11.65.65L691,746.54l-19.72-.4a2,2,0,0,0-.8,3.75l13.31,5.63c-8,3-19.16,7.38-27.75,10.74a2.42,2.42,0,0,0,.93,4.67c11.91-.25,28.32-.65,34.78-1.06l4.56,19.19a2,2,0,0,0,3.81-.07c1.18-5.92,2.72-13.79,3.93-20.18l30.89,4A2,2,0,0,0,736.05,769.09Z"/><polygon class="cls-51" points="710.75 717.84 610.9 673.1 611.33 665.66 696.47 638.14 797.04 677.78 710.75 717.84"/><polygon class="cls-52" points="713.66 710.39 610.68 665.66 699.38 630.7 799.95 670.34 713.66 710.39"/><path class="cls-34" d="M709.93,684.34a313.58,313.58,0,0,0,54.83-7.29c1.21-6.64,2.41-13.35,2.06-20.08s-2.41-13.6-7-18.55c-8.16-8.82-21.75-9.43-33.73-8.51-12.8,1-13.56-5.29-26-2.27-12-12.1-34.52-13-51.05-17.07-10.61-2.62-29.27,2.28-36.92,10.08-3.42,3.49-5,8.34-6.42,13a361.41,361.41,0,0,0-15,108.92l8.18,1.83c5.86-29.72,11.41-54.45,17.27-84.17.52-2.64,1.14-5.47,3.13-7.27,2.17-2,5.41-2.2,8.32-1.89,7.12.75,9.73.14,16.13,3.35,18,9,38.57,18.74,57,27.86A19.18,19.18,0,0,0,709.93,684.34Z"/><polyline class="cls-53" points="596.91 740.13 596.91 748.99 594.66 748.99 594.66 745.6 589.45 746.38 586.85 748.99 576.43 748.99 580.08 744.04 590.78 743.52 593.1 743.26 592.84 739.87"/><polygon class="cls-54" points="611.98 646.88 626.22 637.17 695.5 669.54 669.6 682.49 611.98 646.88"/><path class="cls-55" d="M682.09,687.57a312.63,312.63,0,0,0,54.83-7.29c1.21-6.63,2.41-13.34,2.06-20.07s-2.41-13.61-7-18.56c-8.17-8.81-21.75-9.42-33.73-8.5-12.8,1-66.55-13.86-83.09-18-10.6-2.63-23.26.9-30.91,8.7-3.42,3.49-5,8.33-6.42,13a361.45,361.45,0,0,0-15.05,108.92l8.18,1.84c5.86-29.72,11.41-54.45,17.27-84.17.52-2.64,1.14-5.47,3.13-7.28,2.17-2,5.41-2.2,8.32-1.89,7.12.76,9.73.14,16.13,3.35,18,9,38.57,18.74,56.95,27.87A19.06,19.06,0,0,0,682.09,687.57Z"/><polyline class="cls-53" points="570.06 742.21 570.06 753.46 567.2 753.46 567.2 749.16 560.58 750.15 557.27 753.46 544.04 753.46 548.67 747.17 562.27 746.51 565.21 746.18 564.88 741.88"/><path class="cls-56" d="M753.7,555.42c-2.75-11.09-7-22-14.21-30.89-7.56-9.27-16.81-15.74-27-22-9.4,2-9.27,2.6-18.33,5.78a45.33,45.33,0,0,0-11.47,5.41c-2.08,4,.94,65.52.57,92.83-.62,14.62-29.3,30-19.52,42.42,4.42,5.61,9.23,11.49,16,13.73,4.21,1.38,8.77,1.19,13.2.88A273.93,273.93,0,0,0,723,659.75c10-1.83,17.17-3.07,21.47-12.24a141.15,141.15,0,0,0,10.22-29.7A138,138,0,0,0,753.7,555.42Z"/><path class="cls-52" d="M790.24,672.93c-29.85,12.48-49.65,20.21-78.52,34.81,8.55-41.24,18.61-90.92,27.16-132.15,28-30.27,61.07-39,81.14-39C809.23,582.15,801,627.39,790.24,672.93Z"/><path class="cls-51" d="M798,676.81c-29.85,12.48-51.58,23.89-80.45,38.49,8.55-41.24,18.62-90.92,27.17-132.15,21.14-28.22,67.11-46.54,83.06-42.65C817,586,808.81,631.28,798,676.81Z"/><path class="cls-10" d="M653.74,573.36l-22.86-15.79H620.63c4.7-11.28,24.19-10.58,37.29.63S670.73,583.34,653.74,573.36Z"/><path class="cls-10" d="M610.68,589.87l-24-18.6H576.43c4.7-11.28,24.19-10.58,37.29.63S627.68,599.85,610.68,589.87Z"/><path class="cls-57" d="M694.18,522.76c-1.72-2.64-6.83-8.29-11.48-9.06l-.78.55c-2.44,1.87-5.67,3.55-6.53,6.51-13.67,47.08-58.54,54.84-61.67,51.14-4.46,8.14-5.48,7.85-8,16.78,22,12.25,44,12,59.85,7.3C709.76,567.84,696.38,526.16,694.18,522.76Z"/><path class="cls-10" d="M672.73,434s-3.27,23.58,0,34.83c-.37,1.45-5.45,4.35-5.45,4.35l6.17,4,12.34,20.32c7.62-3.63,38.82-20.32,39.54-33.38S699.21,406.07,672.73,434Z"/><path class="cls-9" d="M672,432.55c5.81,1.09,13.06,10.53,15.6,13.07s8.71,22.49,7.62,41.72,1.81,19.23,10.16,17.05,15.24,4,13.42,10.88,9.44,52.25,33.74,31.93c6.9-3.26,14.88-16,13.43-17.05-4.36,5.44-16.33,4.35-14.15-3.27s.36-34.82-2.9-52.6c-2.43-13.23-16.26-52-42.09-54.42C697.94,419,681.57,422.06,672,432.55Z"/><path class="cls-58" d="M672,432.55a13.17,13.17,0,0,1,4.88,2.14,34.83,34.83,0,0,1,4.19,3.36c1.32,1.21,2.58,2.48,3.81,3.76l1.84,1.93.92.95.46.46.5.6c.3.41.49.82.74,1.23l.6,1.24c.37.83.72,1.66,1,2.51.63,1.69,1.2,3.4,1.69,5.12a102,102,0,0,1,2.43,10.48,97.18,97.18,0,0,1,1.48,21.49,80.79,80.79,0,0,0,0,10.44,11.48,11.48,0,0,0,1.14,4.49,2.2,2.2,0,0,0,1.24,1,5.22,5.22,0,0,0,2,.08,23,23,0,0,0,2.44-.45c.84-.2,1.67-.43,2.67-.61a13.94,13.94,0,0,1,5.89.16,11.92,11.92,0,0,1,5.25,2.85,10.11,10.11,0,0,1,3,5.28c.11.5.13,1,.19,1.54s0,1-.06,1.54l-.29,1.49-.09.49c0,.17,0,.38,0,.57a25.69,25.69,0,0,0,.36,5c.27,1.7.61,3.41,1,5.1s.9,3.37,1.44,5a52.11,52.11,0,0,0,4.19,9.55,25,25,0,0,0,6.56,7.86,12.06,12.06,0,0,0,9.6,2.46,21.87,21.87,0,0,0,9.4-4.53l-2,1.71c-.72.53-1.47,1-2.21,1.52s-1.57.87-2.41,1.22a14.64,14.64,0,0,1-2.58.83,13.22,13.22,0,0,1-10.57-2,26.86,26.86,0,0,1-7.38-8.05,52.62,52.62,0,0,1-4.69-9.78,60.76,60.76,0,0,1-2.84-10.48,28,28,0,0,1-.49-5.57c0-.25,0-.49,0-.75l.14-.83.2-1.13c0-.37,0-.75,0-1.12s-.07-.74-.16-1.1a8.22,8.22,0,0,0-6.25-5.94,11.13,11.13,0,0,0-4.67-.09c-.74.13-1.63.38-2.52.59a21.23,21.23,0,0,1-2.79.53,7.88,7.88,0,0,1-3.23-.21,5,5,0,0,1-1.65-.89,5.72,5.72,0,0,1-1.17-1.36,13.86,13.86,0,0,1-1.52-5.74,78.45,78.45,0,0,1,.07-10.85,91.94,91.94,0,0,0,.07-10.5c-.21-3.5-.53-7-1-10.48s-1.2-6.93-2-10.34c-.4-1.71-.89-3.4-1.42-5.07a24.75,24.75,0,0,0-2-4.72l-.32-.45-.45-.51-.88-1-1.72-2c-1.14-1.34-2.31-2.67-3.54-3.94a35.57,35.57,0,0,0-3.9-3.56A13,13,0,0,0,672,432.55Z"/><ellipse class="cls-59" cx="674.42" cy="459.96" rx="8.85" ry="13.95"/><path class="cls-60" d="M673.4,429.32a23.5,23.5,0,0,1,9.67-.13,32.33,32.33,0,0,1,9.24,3.31A39,39,0,0,1,706.53,446a46.2,46.2,0,0,1,4.27,8.88,49.28,49.28,0,0,1,2.26,9.53,55.92,55.92,0,0,1-.73,19.28,84.19,84.19,0,0,0-1.5-18.89,51.3,51.3,0,0,0-6.75-17.25,41,41,0,0,0-5.73-7.25,38.67,38.67,0,0,0-7.17-5.83A31.55,31.55,0,0,0,673.4,429.32Z"/><path class="cls-60" d="M676.75,429a28.45,28.45,0,0,1,12.38-5.52,31.84,31.84,0,0,1,6.9-.56,33.63,33.63,0,0,1,6.9,1,34,34,0,0,1,6.5,2.48,32,32,0,0,1,5.78,3.83A28.41,28.41,0,0,1,723.38,441a42.8,42.8,0,0,0-9.54-9,37.76,37.76,0,0,0-5.61-3.15,35.45,35.45,0,0,0-12.34-3.18,38.49,38.49,0,0,0-6.44.05A42.76,42.76,0,0,0,676.75,429Z"/><circle class="cls-61" cx="701.28" cy="471.79" r="16.81" transform="translate(80.99 1045.92) rotate(-76.72)"/><path class="cls-62" d="M703,417.65c-3.93-1-13,10.62-12.81,15,.15,3.2,1.62,34.33,6.15,39.19s9.52,0,9.52,0-9.22-32.74-7.08-35.72c3.39-4.73,7.33-15.5,17.25-14.3C712.8,418.06,703,417.65,703,417.65Z"/><circle class="cls-63" cx="701.28" cy="471.79" r="10.53" transform="translate(80.99 1045.92) rotate(-76.72)"/><circle class="cls-63" cx="701.28" cy="471.79" r="10.53" transform="translate(80.99 1045.92) rotate(-76.72)"/><path class="cls-18" d="M1058.59,402.14c4,.24,8,.63,11.92,1.07s7.9.94,11.84,1.42q3,.39,5.9.71c1,.13,2,.23,2.94.32l3,.2a22.24,22.24,0,0,1,6,1.28,17.93,17.93,0,0,1,5.27,2.94,23,23,0,0,0-5.56-2,25,25,0,0,0-5.76-.66,82.72,82.72,0,0,1-12-.81c-4-.51-7.9-1.12-11.82-1.86S1062.45,403.19,1058.59,402.14Z"/><ellipse class="cls-46" cx="1002.32" cy="902.98" rx="21.39" ry="7.28"/><path class="cls-64" d="M977.55,861.17l7.23,37.21c0,3.73,8.09,6.76,18.07,6.76s18.07-3,18.07-6.76l7.22-37.21Z"/><path class="cls-48" d="M1028.14,861.17H977.55l1.56,8c8.56,6.16,27.74,15.72,44,17.63Z"/><ellipse class="cls-49" cx="1002.46" cy="864.35" rx="32.45" ry="11.26"/><path class="cls-50" d="M1034.91,862.56c0,6.22-14.53,11.26-32.45,11.26s-32.45-5-32.45-11.26,14.53-11.26,32.45-11.26S1034.91,856.34,1034.91,862.56Z"/><ellipse class="cls-48" cx="1002.85" cy="861.17" rx="25.3" ry="8.08"/><path class="cls-65" d="M1005.76,867.8c14-13.3,33.38-55.39,33.52-66.17.16-12.06-11.29,3.64-15.23,10.93a273.17,273.17,0,0,0-16.11,32.06c1.55-7.15,6-21.86,7.22-28.93,3.26-18.94,7.55-54.81,2.16-73.53-1.63-5.65-4.25-18.86-10.09-21.57-6.44-3-11.54,8.21-14.24,13.2-8.86,16.41-8.79,37.87-8.36,56,.32,13.71,5.82,43.76,8,57.28-4.85-10.25-16.17-26.33-21.57-36.31-3-5.5-17.58-36.28-26.48-20.68-7.37,12.93,1.81,33.43,9.91,43.62,8,10,28.09,26,39.84,33.43C996,868.19,1001.1,870.44,1005.76,867.8Z"/><path class="cls-65" d="M1071.18,839.86c-9.55-7.63-26-1.64-35.69,2.48a72.26,72.26,0,0,0-30.93,24.24c-1.14,1.58,1.43,3.27,3,2.46,14.25-7.6,32.32-7.75,47.64-12.19C1060.56,855.29,1082.38,848.81,1071.18,839.86Z"/><path class="cls-65" d="M272.13,810.28s32.69-55.18,26.29-56.61-29.11,13.25-32.93,31.45c4.41-37-20.75-96-25.15-88.64s-2.05,48.43,0,84.24c-3.81-31-15.85-57.24-18.2-49.31s8.52,43.73,7.93,53.41c-1.76-7.63-9.1-16.72-10-15s1.17,12,4.7,20.25c-6.46-9.1-15.56-8.22-16.73-6.17s21.75,22.72,27.85,26.34C247.2,814.79,246.49,810.28,272.13,810.28Z"/></g></g></svg>